<svg xmlns="http://www.w3.org/2000/svg" viewBox="0 0 289.99 289.99"><title>logo</title><circle cx="144.99" cy="144.99" r="144.99" style="fill:#65b87f"/><path d="M121,90.88v54.94l62.31-65a57.06,57.06,0,0,1,7.64-7,14.15,14.15,0,0,1,8.39-2.25q6.84,0,11.07,4a13,13,0,0,1,4.22,9.78q0,7-7.16,13.79l-38.59,36.56,44.47,63.7a80,80,0,0,1,7.05,11.6,22.5,22.5,0,0,1,2.35,9.67,12.07,12.07,0,0,1-4.11,9.09q-4.12,3.84-11.17,3.84-6.63,0-10.8-2.83a24.31,24.31,0,0,1-7.05-7.53q-2.9-4.71-5.13-8.56L147,157.05,121,182v32.39q0,9.82-4.49,14.59A15.18,15.18,0,0,1,105,233.68a15.53,15.53,0,0,1-7.8-2.13,15,15,0,0,1-5.77-5.78,18.85,18.85,0,0,1-1.82-6.94q-.31-4-.32-11.44V90.88q0-9.61,4.22-14.43T105,71.64a15.13,15.13,0,0,1,11.6,4.76Q121,81.15,121,90.88Z" transform="translate(-2.66 -3)" style="fill:#fff"/></svg>